<svg width="1722" height="328" viewBox="0 0 1722 328" fill="none" xmlns="http://www.w3.org/2000/svg">
<path d="M231.882 0C231.882 57.5032 255.488 109.487 293.585 146.844C333.2 115.321 383.409 96.4706 438 96.4706V122.196C391.195 122.196 348.057 137.76 313.456 164C348.057 190.24 391.195 205.804 438 205.804V231.529C383.409 231.529 333.2 212.678 293.585 181.156C255.487 218.512 231.882 270.497 231.882 328H206.118C206.118 270.496 182.512 218.512 144.414 181.156C104.799 212.678 54.5912 231.529 0 231.529V205.804C46.8045 205.804 89.9427 190.24 124.543 164C89.9427 137.76 46.8045 122.196 0 122.196V96.4706C54.591 96.4706 104.799 115.321 144.414 146.844C182.512 109.487 206.118 57.5034 206.118 0H231.882ZM219 76.2752C207.335 109.665 188.231 139.569 163.678 164C188.231 188.431 207.335 218.335 219 251.724C230.665 218.335 249.769 188.431 274.321 164C249.769 139.569 230.665 109.665 219 76.2752Z" fill="black"/>
<path d="M611.2 234.4C601.067 234.4 592.067 232.6 584.2 229C576.333 225.4 570.2 220.266 565.8 213.6C561.4 206.933 559.133 199 559 189.8H584.4C584.4 194.466 585.467 198.666 587.6 202.4C589.867 206 592.933 208.866 596.8 211C600.8 213.133 605.6 214.2 611.2 214.2C616 214.2 620.133 213.466 623.6 212C627.2 210.4 629.933 208.2 631.8 205.4C633.8 202.466 634.8 199.066 634.8 195.2C634.8 190.8 633.733 187.2 631.6 184.4C629.6 181.466 626.8 179 623.2 177C619.6 175 615.467 173.266 610.8 171.8C606.133 170.2 601.2 168.533 596 166.8C584.933 163.066 576.6 158.333 571 152.6C565.4 146.733 562.6 138.933 562.6 129.2C562.6 121.066 564.533 114.066 568.4 108.2C572.267 102.333 577.667 97.7996 584.6 94.5996C591.667 91.2663 599.8 89.5996 609 89.5996C618.333 89.5996 626.467 91.2663 633.4 94.5996C640.467 97.9329 646 102.6 650 108.6C654.133 114.466 656.267 121.533 656.4 129.8H630.8C630.667 126.333 629.733 123.133 628 120.2C626.267 117.133 623.733 114.666 620.4 112.8C617.2 110.8 613.267 109.8 608.6 109.8C604.6 109.666 601 110.333 597.8 111.8C594.733 113.133 592.267 115.133 590.4 117.8C588.667 120.333 587.8 123.533 587.8 127.4C587.8 131.133 588.6 134.266 590.2 136.8C591.933 139.2 594.4 141.266 597.6 143C600.8 144.6 604.533 146.133 608.8 147.6C613.067 149.066 617.733 150.666 622.8 152.4C629.733 154.666 636 157.466 641.6 160.8C647.333 164 651.867 168.2 655.2 173.4C658.533 178.6 660.2 185.333 660.2 193.6C660.2 200.8 658.333 207.533 654.6 213.8C650.867 219.933 645.4 224.933 638.2 228.8C631 232.533 622 234.4 611.2 234.4Z" fill="black"/>
<path d="M674.336 232L725.536 91.9996H752.336L803.536 232H778.136L738.736 120L699.336 232H674.336ZM697.136 199L703.536 180H772.536L778.936 199H697.136Z" fill="black"/>
<path d="M822.794 232V91.9996H846.794L914.194 193.2V91.9996H938.194V232H914.194L846.794 131V232H822.794Z" fill="black"/>
<path d="M1028.55 234.4C1014.68 234.4 1002.68 231.4 992.548 225.4C982.548 219.266 974.815 210.8 969.348 200C964.015 189.066 961.348 176.466 961.348 162.2C961.348 147.8 964.015 135.2 969.348 124.4C974.815 113.466 982.548 104.933 992.548 98.7996C1002.68 92.6663 1014.68 89.5996 1028.55 89.5996C1045.22 89.5996 1058.82 93.7329 1069.35 102C1079.88 110.133 1086.55 121.666 1089.35 136.6H1062.95C1061.08 128.733 1057.28 122.533 1051.55 118C1045.82 113.466 1038.08 111.2 1028.35 111.2C1019.55 111.2 1011.95 113.266 1005.55 117.4C999.282 121.4 994.415 127.266 990.948 135C987.615 142.6 985.948 151.666 985.948 162.2C985.948 172.733 987.615 181.8 990.948 189.4C994.415 196.866 999.282 202.666 1005.55 206.8C1011.95 210.8 1019.55 212.8 1028.35 212.8C1038.08 212.8 1045.82 210.733 1051.55 206.6C1057.28 202.333 1061.08 196.466 1062.95 189H1089.35C1086.68 203.133 1080.02 214.266 1069.35 222.4C1058.82 230.4 1045.22 234.4 1028.55 234.4Z" fill="black"/>
<path d="M1143.48 232V111.4H1102.28V91.9996H1208.48V111.4H1167.28V232H1143.48Z" fill="black"/>
<path d="M1281.26 234.4C1271.13 234.4 1261.93 232.4 1253.66 228.4C1245.53 224.4 1239 218.266 1234.06 210C1229.26 201.733 1226.86 191.333 1226.86 178.8V91.9996H1250.86V179C1250.86 186.6 1252.13 192.866 1254.66 197.8C1257.2 202.733 1260.73 206.466 1265.26 209C1269.93 211.4 1275.4 212.6 1281.66 212.6C1288.06 212.6 1293.53 211.4 1298.06 209C1302.73 206.466 1306.26 202.733 1308.66 197.8C1311.2 192.866 1312.46 186.6 1312.46 179V91.9996H1336.46V178.8C1336.46 191.333 1334 201.733 1329.06 210C1324.13 218.266 1317.46 224.4 1309.06 228.4C1300.66 232.4 1291.4 234.4 1281.26 234.4Z" fill="black"/>
<path d="M1348.16 232L1399.36 91.9996H1426.16L1477.36 232H1451.96L1412.56 120L1373.16 232H1348.16ZM1370.96 199L1377.36 180H1446.36L1452.76 199H1370.96Z" fill="black"/>
<path d="M1496.62 232V91.9996H1546.82C1557.89 91.9996 1567.02 93.9329 1574.22 97.7996C1581.56 101.533 1586.96 106.6 1590.42 113C1594.02 119.266 1595.82 126.4 1595.82 134.4C1595.82 141.866 1594.09 148.8 1590.62 155.2C1587.16 161.6 1581.76 166.733 1574.42 170.6C1567.09 174.466 1557.69 176.4 1546.22 176.4H1520.62V232H1496.62ZM1569.62 232L1540.22 170.2H1566.22L1597.02 232H1569.62ZM1520.62 158.6H1545.22C1554.16 158.6 1560.69 156.466 1564.82 152.2C1569.09 147.8 1571.22 142.066 1571.22 135C1571.22 128.066 1569.16 122.533 1565.02 118.4C1560.89 114.133 1554.29 112 1545.22 112H1520.62V158.6Z" fill="black"/>
<path d="M1651.17 232V181.6L1604.57 91.9996H1631.77L1665.97 163.2H1660.77L1694.97 91.9996H1721.97L1675.17 181.6V232H1651.17Z" fill="black"/>
</svg>
